<svg xmlns="http://www.w3.org/2000/svg" width="720" height="420" viewBox="0 0 720 420" font-family="-apple-system,Segoe UI,Helvetica,Arial,sans-serif">
<rect width="720" height="420" fill="#ffffff"/>
<text x="360" y="26" text-anchor="middle" font-size="17" font-weight="600">Register-tile geometry — speedup vs reference (square NN)</text>
<line x1="64" y1="350.0" x2="696" y2="350.0" stroke="#e6e6e6"/>
<text x="56" y="354.0" text-anchor="end" font-size="12" fill="#444">0.0</text>
<line x1="64" y1="290.0" x2="696" y2="290.0" stroke="#e6e6e6"/>
<text x="56" y="294.0" text-anchor="end" font-size="12" fill="#444">0.9</text>
<line x1="64" y1="230.0" x2="696" y2="230.0" stroke="#e6e6e6"/>
<text x="56" y="234.0" text-anchor="end" font-size="12" fill="#444">1.8</text>
<line x1="64" y1="170.0" x2="696" y2="170.0" stroke="#e6e6e6"/>
<text x="56" y="174.0" text-anchor="end" font-size="12" fill="#444">2.7</text>
<line x1="64" y1="110.0" x2="696" y2="110.0" stroke="#e6e6e6"/>
<text x="56" y="114.0" text-anchor="end" font-size="12" fill="#444">3.6</text>
<line x1="64" y1="50.0" x2="696" y2="50.0" stroke="#e6e6e6"/>
<text x="56" y="54.0" text-anchor="end" font-size="12" fill="#444">4.5</text>
<line x1="64" y1="283.3" x2="696" y2="283.3" stroke="#999" stroke-dasharray="5,4"/>
<text transform="translate(16,200) rotate(-90)" text-anchor="middle" font-size="13" fill="#222">speedup (×)</text>
<rect x="87.2" y="204.7" width="29.6" height="145.3" fill="#1f77b4"/>
<text x="102.0" y="200.7" text-anchor="middle" font-size="10" fill="#333">2.2</text>
<rect x="120.0" y="105.3" width="29.6" height="244.7" fill="#d62728"/>
<text x="134.8" y="101.3" text-anchor="middle" font-size="10" fill="#333">3.7</text>
<rect x="152.9" y="110.0" width="29.6" height="240.0" fill="#2ca02c"/>
<text x="167.7" y="106.0" text-anchor="middle" font-size="10" fill="#333">3.6</text>
<rect x="185.8" y="118.0" width="29.6" height="232.0" fill="#9467bd"/>
<text x="200.6" y="114.0" text-anchor="middle" font-size="10" fill="#333">3.5</text>
<rect x="218.6" y="187.3" width="29.6" height="162.7" fill="#ff7f0e"/>
<text x="233.4" y="183.3" text-anchor="middle" font-size="10" fill="#333">2.4</text>
<text x="169.3" y="368" text-anchor="middle" font-size="11" fill="#222">n=64</text>
<rect x="297.8" y="210.0" width="29.6" height="140.0" fill="#1f77b4"/>
<text x="312.6" y="206.0" text-anchor="middle" font-size="10" fill="#333">2.1</text>
<rect x="330.7" y="102.7" width="29.6" height="247.3" fill="#d62728"/>
<text x="345.5" y="98.7" text-anchor="middle" font-size="10" fill="#333">3.7</text>
<rect x="363.6" y="112.7" width="29.6" height="237.3" fill="#2ca02c"/>
<text x="378.4" y="108.7" text-anchor="middle" font-size="10" fill="#333">3.6</text>
<rect x="396.4" y="118.0" width="29.6" height="232.0" fill="#9467bd"/>
<text x="411.2" y="114.0" text-anchor="middle" font-size="10" fill="#333">3.5</text>
<rect x="429.3" y="146.7" width="29.6" height="203.3" fill="#ff7f0e"/>
<text x="444.1" y="142.7" text-anchor="middle" font-size="10" fill="#333">3.0</text>
<text x="380.0" y="368" text-anchor="middle" font-size="11" fill="#222">n=256</text>
<rect x="508.5" y="214.0" width="29.6" height="136.0" fill="#1f77b4"/>
<text x="523.3" y="210.0" text-anchor="middle" font-size="10" fill="#333">2.0</text>
<rect x="541.4" y="107.3" width="29.6" height="242.7" fill="#d62728"/>
<text x="556.2" y="103.3" text-anchor="middle" font-size="10" fill="#333">3.6</text>
<rect x="574.2" y="118.7" width="29.6" height="231.3" fill="#2ca02c"/>
<text x="589.0" y="114.7" text-anchor="middle" font-size="10" fill="#333">3.5</text>
<rect x="607.1" y="124.0" width="29.6" height="226.0" fill="#9467bd"/>
<text x="621.9" y="120.0" text-anchor="middle" font-size="10" fill="#333">3.4</text>
<rect x="640.0" y="136.7" width="29.6" height="213.3" fill="#ff7f0e"/>
<text x="654.8" y="132.7" text-anchor="middle" font-size="10" fill="#333">3.2</text>
<text x="590.7" y="368" text-anchor="middle" font-size="11" fill="#222">n=512</text>
<line x1="64" y1="350" x2="696" y2="350" stroke="#444"/>
<rect x="76" y="47" width="12" height="12" rx="2" fill="#1f77b4"/>
<text x="94" y="57" font-size="12" fill="#222">2×2</text>
<rect x="76" y="65" width="12" height="12" rx="2" fill="#d62728"/>
<text x="94" y="75" font-size="12" fill="#222">4×4</text>
<rect x="76" y="83" width="12" height="12" rx="2" fill="#2ca02c"/>
<text x="94" y="93" font-size="12" fill="#222">8×4</text>
<rect x="76" y="101" width="12" height="12" rx="2" fill="#9467bd"/>
<text x="94" y="111" font-size="12" fill="#222">4×8</text>
<rect x="76" y="119" width="12" height="12" rx="2" fill="#ff7f0e"/>
<text x="94" y="129" font-size="12" fill="#222">6×6</text>
</svg>