<svg xmlns="http://www.w3.org/2000/svg" width="720" height="420" viewBox="0 0 720 420" font-family="-apple-system,Segoe UI,Helvetica,Arial,sans-serif">
<rect width="720" height="420" fill="#ffffff"/>
<text x="360" y="26" text-anchor="middle" font-size="17" font-weight="600">Generalization across transpose modes (512³, col-major)</text>
<line x1="64" y1="350.0" x2="696" y2="350.0" stroke="#e6e6e6"/>
<text x="56" y="354.0" text-anchor="end" font-size="12" fill="#444">0.0</text>
<line x1="64" y1="290.0" x2="696" y2="290.0" stroke="#e6e6e6"/>
<text x="56" y="294.0" text-anchor="end" font-size="12" fill="#444">1.0</text>
<line x1="64" y1="230.0" x2="696" y2="230.0" stroke="#e6e6e6"/>
<text x="56" y="234.0" text-anchor="end" font-size="12" fill="#444">2.0</text>
<line x1="64" y1="170.0" x2="696" y2="170.0" stroke="#e6e6e6"/>
<text x="56" y="174.0" text-anchor="end" font-size="12" fill="#444">3.0</text>
<line x1="64" y1="110.0" x2="696" y2="110.0" stroke="#e6e6e6"/>
<text x="56" y="114.0" text-anchor="end" font-size="12" fill="#444">4.0</text>
<line x1="64" y1="50.0" x2="696" y2="50.0" stroke="#e6e6e6"/>
<text x="56" y="54.0" text-anchor="end" font-size="12" fill="#444">5.0</text>
<line x1="64" y1="290.0" x2="696" y2="290.0" stroke="#999" stroke-dasharray="5,4"/>
<text transform="translate(16,200) rotate(-90)" text-anchor="middle" font-size="13" fill="#222">speedup vs reference (×)</text>
<rect x="81.4" y="101.6" width="110.9" height="248.4" fill="#d62728"/>
<text x="136.8" y="97.6" text-anchor="middle" font-size="10" fill="#333">4.1</text>
<text x="143.0" y="368" text-anchor="middle" font-size="11" fill="#222">NN</text>
<rect x="239.4" y="100.4" width="110.9" height="249.6" fill="#d62728"/>
<text x="294.8" y="96.4" text-anchor="middle" font-size="10" fill="#333">4.2</text>
<text x="301.0" y="368" text-anchor="middle" font-size="11" fill="#222">TN (AᵀB)</text>
<rect x="397.4" y="100.4" width="110.9" height="249.6" fill="#d62728"/>
<text x="452.8" y="96.4" text-anchor="middle" font-size="10" fill="#333">4.2</text>
<text x="459.0" y="368" text-anchor="middle" font-size="11" fill="#222">NT (ABᵀ)</text>
<rect x="555.4" y="100.4" width="110.9" height="249.6" fill="#d62728"/>
<text x="610.8" y="96.4" text-anchor="middle" font-size="10" fill="#333">4.2</text>
<text x="617.0" y="368" text-anchor="middle" font-size="11" fill="#222">TT (AᵀBᵀ)</text>
<line x1="64" y1="350" x2="696" y2="350" stroke="#444"/>
<rect x="76" y="47" width="12" height="12" rx="2" fill="#d62728"/>
<text x="94" y="57" font-size="12" fill="#222">v4 general 4×4</text>
</svg>