<svg xmlns="http://www.w3.org/2000/svg" width="720" height="420" viewBox="0 0 720 420" font-family="-apple-system,Segoe UI,Helvetica,Arial,sans-serif">
<rect width="720" height="420" fill="#ffffff"/>
<text x="360" y="26" text-anchor="middle" font-size="17" font-weight="600">Shape generalization — flat tile (v4) vs cache-blocked (v6)</text>
<line x1="64" y1="350.0" x2="696" y2="350.0" stroke="#e6e6e6"/>
<text x="56" y="354.0" text-anchor="end" font-size="12" fill="#444">0.0</text>
<line x1="64" y1="290.0" x2="696" y2="290.0" stroke="#e6e6e6"/>
<text x="56" y="294.0" text-anchor="end" font-size="12" fill="#444">1.0</text>
<line x1="64" y1="230.0" x2="696" y2="230.0" stroke="#e6e6e6"/>
<text x="56" y="234.0" text-anchor="end" font-size="12" fill="#444">2.0</text>
<line x1="64" y1="170.0" x2="696" y2="170.0" stroke="#e6e6e6"/>
<text x="56" y="174.0" text-anchor="end" font-size="12" fill="#444">3.0</text>
<line x1="64" y1="110.0" x2="696" y2="110.0" stroke="#e6e6e6"/>
<text x="56" y="114.0" text-anchor="end" font-size="12" fill="#444">4.0</text>
<line x1="64" y1="50.0" x2="696" y2="50.0" stroke="#e6e6e6"/>
<text x="56" y="54.0" text-anchor="end" font-size="12" fill="#444">5.0</text>
<line x1="64" y1="290.0" x2="696" y2="290.0" stroke="#999" stroke-dasharray="5,4"/>
<text transform="translate(16,200) rotate(-90)" text-anchor="middle" font-size="13" fill="#222">speedup vs reference (×)</text>
<rect x="75.6" y="125.0" width="37.0" height="225.0" fill="#d62728"/>
<text x="94.1" y="121.0" text-anchor="middle" font-size="10" fill="#333">3.8</text>
<rect x="116.7" y="129.8" width="37.0" height="220.2" fill="#2ca02c"/>
<text x="135.2" y="125.8" text-anchor="middle" font-size="10" fill="#333">3.7</text>
<text x="116.7" y="368" text-anchor="middle" font-size="11" fill="#222">rank-64</text>
<rect x="180.9" y="278.0" width="37.0" height="72.0" fill="#d62728"/>
<text x="199.4" y="274.0" text-anchor="middle" font-size="10" fill="#333">1.2</text>
<rect x="222.0" y="143.6" width="37.0" height="206.4" fill="#2ca02c"/>
<text x="240.5" y="139.6" text-anchor="middle" font-size="10" fill="#333">3.4</text>
<text x="222.0" y="368" text-anchor="middle" font-size="11" fill="#222">tall N=32</text>
<rect x="286.3" y="81.8" width="37.0" height="268.2" fill="#d62728"/>
<text x="304.7" y="77.8" text-anchor="middle" font-size="10" fill="#333">4.5</text>
<rect x="327.3" y="81.8" width="37.0" height="268.2" fill="#2ca02c"/>
<text x="345.8" y="77.8" text-anchor="middle" font-size="10" fill="#333">4.5</text>
<text x="327.3" y="368" text-anchor="middle" font-size="11" fill="#222">wide M=32</text>
<rect x="391.6" y="123.8" width="37.0" height="226.2" fill="#d62728"/>
<text x="410.1" y="119.8" text-anchor="middle" font-size="10" fill="#333">3.8</text>
<rect x="432.7" y="120.2" width="37.0" height="229.8" fill="#2ca02c"/>
<text x="451.2" y="116.2" text-anchor="middle" font-size="10" fill="#333">3.8</text>
<text x="432.7" y="368" text-anchor="middle" font-size="11" fill="#222">tall-A</text>
<rect x="496.9" y="93.2" width="37.0" height="256.8" fill="#d62728"/>
<text x="515.4" y="89.2" text-anchor="middle" font-size="10" fill="#333">4.3</text>
<rect x="538.0" y="96.8" width="37.0" height="253.2" fill="#2ca02c"/>
<text x="556.5" y="92.8" text-anchor="middle" font-size="10" fill="#333">4.2</text>
<text x="538.0" y="368" text-anchor="middle" font-size="11" fill="#222">deep-K</text>
<rect x="602.3" y="107.6" width="37.0" height="242.4" fill="#d62728"/>
<text x="620.7" y="103.6" text-anchor="middle" font-size="10" fill="#333">4.0</text>
<rect x="643.3" y="107.0" width="37.0" height="243.0" fill="#2ca02c"/>
<text x="661.8" y="103.0" text-anchor="middle" font-size="10" fill="#333">4.0</text>
<text x="643.3" y="368" text-anchor="middle" font-size="11" fill="#222">rect</text>
<line x1="64" y1="350" x2="696" y2="350" stroke="#444"/>
<rect x="76" y="47" width="12" height="12" rx="2" fill="#d62728"/>
<text x="94" y="57" font-size="12" fill="#222">v4 general 4×4</text>
<rect x="76" y="65" width="12" height="12" rx="2" fill="#2ca02c"/>
<text x="94" y="75" font-size="12" fill="#222">v6 blocked</text>
</svg>