<svg xmlns="http://www.w3.org/2000/svg" width="720" height="420" viewBox="0 0 720 420" font-family="-apple-system,Segoe UI,Helvetica,Arial,sans-serif">
<rect width="720" height="420" fill="#ffffff"/>
<text x="360" y="26" text-anchor="middle" font-size="17" font-weight="600">Throughput across A×B memory layouts (NN, n=256)</text>
<line x1="64" y1="350.0" x2="696" y2="350.0" stroke="#e6e6e6"/>
<text x="56" y="354.0" text-anchor="end" font-size="12" fill="#444">0.0</text>
<line x1="64" y1="290.0" x2="696" y2="290.0" stroke="#e6e6e6"/>
<text x="56" y="294.0" text-anchor="end" font-size="12" fill="#444">2.0</text>
<line x1="64" y1="230.0" x2="696" y2="230.0" stroke="#e6e6e6"/>
<text x="56" y="234.0" text-anchor="end" font-size="12" fill="#444">4.0</text>
<line x1="64" y1="170.0" x2="696" y2="170.0" stroke="#e6e6e6"/>
<text x="56" y="174.0" text-anchor="end" font-size="12" fill="#444">6.0</text>
<line x1="64" y1="110.0" x2="696" y2="110.0" stroke="#e6e6e6"/>
<text x="56" y="114.0" text-anchor="end" font-size="12" fill="#444">8.0</text>
<line x1="64" y1="50.0" x2="696" y2="50.0" stroke="#e6e6e6"/>
<text x="56" y="54.0" text-anchor="end" font-size="12" fill="#444">10.0</text>
<text transform="translate(16,200) rotate(-90)" text-anchor="middle" font-size="13" fill="#222">GFLOP/s</text>
<rect x="81.4" y="249.2" width="55.5" height="100.8" fill="#9467bd"/>
<text x="109.1" y="245.2" text-anchor="middle" font-size="10" fill="#333">3.4</text>
<rect x="143.0" y="80.0" width="55.5" height="270.0" fill="#2ca02c"/>
<text x="170.7" y="76.0" text-anchor="middle" font-size="10" fill="#333">9.0</text>
<text x="143.0" y="368" text-anchor="middle" font-size="11" fill="#222">A=row B=col*</text>
<rect x="239.4" y="301.1" width="55.5" height="48.9" fill="#9467bd"/>
<text x="267.1" y="297.1" text-anchor="middle" font-size="10" fill="#333">1.6</text>
<rect x="301.0" y="82.7" width="55.5" height="267.3" fill="#2ca02c"/>
<text x="328.7" y="78.7" text-anchor="middle" font-size="10" fill="#333">8.9</text>
<text x="301.0" y="368" text-anchor="middle" font-size="11" fill="#222">A=row B=row</text>
<rect x="397.4" y="301.4" width="55.5" height="48.6" fill="#9467bd"/>
<text x="425.1" y="297.4" text-anchor="middle" font-size="10" fill="#333">1.6</text>
<rect x="459.0" y="85.7" width="55.5" height="264.3" fill="#2ca02c"/>
<text x="486.7" y="81.7" text-anchor="middle" font-size="10" fill="#333">8.8</text>
<text x="459.0" y="368" text-anchor="middle" font-size="11" fill="#222">A=col B=col</text>
<rect x="555.4" y="302.0" width="55.5" height="48.0" fill="#9467bd"/>
<text x="583.1" y="298.0" text-anchor="middle" font-size="10" fill="#333">1.6</text>
<rect x="617.0" y="85.1" width="55.5" height="264.9" fill="#2ca02c"/>
<text x="644.7" y="81.1" text-anchor="middle" font-size="10" fill="#333">8.8</text>
<text x="617.0" y="368" text-anchor="middle" font-size="11" fill="#222">A=col B=row</text>
<line x1="64" y1="350" x2="696" y2="350" stroke="#444"/>
<rect x="76" y="47" width="12" height="12" rx="2" fill="#9467bd"/>
<text x="94" y="57" font-size="12" fill="#222">upstream stdlib</text>
<rect x="76" y="65" width="12" height="12" rx="2" fill="#2ca02c"/>
<text x="94" y="75" font-size="12" fill="#222">v6 register tile</text>
</svg>